<?xml version="1.0" encoding="UTF-8"?><svg id="Layer_1" xmlns="http://www.w3.org/2000/svg" viewBox="0 0 896.04 499.95"><defs><style>.cls-1,.cls-2,.cls-3{fill:#231f20;}.cls-1,.cls-4,.cls-5{stroke-width:0px;}.cls-6{fill:#e6e7e8;}.cls-6,.cls-7,.cls-8,.cls-9,.cls-10{stroke:#231f20;stroke-miterlimit:10;}.cls-7{fill:#bcbec0;}.cls-7,.cls-10{stroke-width:2.25px;}.cls-11{letter-spacing:-.07em;}.cls-2{font-size:25.2px;}.cls-2,.cls-12,.cls-13{font-family:Arial-BoldMT, Arial;font-weight:700;}.cls-8{fill:#fffad6;stroke-width:9px;}.cls-12,.cls-14{letter-spacing:-.02em;}.cls-9{fill:#fbb040;}.cls-4{fill:#be1e2d;}.cls-15{letter-spacing:-.13em;}.cls-3{font-size:21.6px;}.cls-16{letter-spacing:-.06em;}.cls-17{font-family:ArialMT, Arial;}.cls-5{fill:#fff;}.cls-10{fill:#414042;}</style></defs><rect class="cls-9" x=".5" y="67.2" width="453.79" height="368.42" rx="12" ry="12"/><rect class="cls-6" x="16.63" y="84.41" width="420.97" height="95.97" rx="12" ry="12"/><rect class="cls-6" x="16.63" y="202.55" width="420.97" height="95.97" rx="12" ry="12"/><rect class="cls-6" x="16.63" y="320.7" width="420.97" height="95.97" rx="12" ry="12"/><text class="cls-2" transform="translate(29.77 21.62)"><tspan x="0" y="0">Single White Matter/</tspan><tspan class="cls-11" x="240.81" y="0">T</tspan><tspan x="254.34" y="0">erritory Rig </tspan><tspan x="16.54" y="30.24">Recording Session: Raw Data</tspan></text><text class="cls-3" transform="translate(29.17 114.63)"><tspan class="cls-13"><tspan x="0" y="0">DAQ (MC USB-005)</tspan></tspan><tspan class="cls-17"><tspan x="0" y="25.92">4 Channels/TTLs in .tdms file</tspan></tspan><tspan class="cls-17"><tspan x="0" y="51.84">WM start, Motif start, WM sync, Stimuli</tspan></tspan></text><text class="cls-3" transform="translate(30.74 233.49)"><tspan class="cls-13"><tspan x="0" y="0">Phy (as a separate directory)</tspan></tspan><tspan class="cls-17"><tspan x="0" y="25.92">Sorted via Kilosort, potentially curated</tspan></tspan><tspan class="cls-17"><tspan x="0" y="51.84">spike_times</tspan></tspan></text><text class="cls-3" transform="translate(29.43 351.29)"><tspan class="cls-13"><tspan x="0" y="0">SLEA</tspan><tspan class="cls-14" x="57.61" y="0">P</tspan><tspan x="71.62" y="0"> </tspan><tspan class="cls-16" x="77.62" y="0">T</tspan><tspan x="89.63" y="0">racking Data</tspan></tspan><tspan class="cls-17"><tspan x="0" y="25.92">Converted to .h5</tspan></tspan><tspan class="cls-17"><tspan x="0" y="51.84">Only track 0 will be used as ephys mouse</tspan></tspan></text><text class="cls-2" transform="translate(573.91 21.62)"><tspan x="0" y="0">Example in Repo</tspan></text><polygon class="cls-8" points="726.04 231.43 626.01 231.43 596.63 70.06 754.24 70.06 726.04 231.43"/><text class="cls-3" transform="translate(475.47 299.36)"><tspan class="cls-13" x="0" y="0">DAQ data: </tspan><tspan class="cls-17" x="111.61" y="0">~2min starting first</tspan><tspan class="cls-17"><tspan x="0" y="25.92">50kHz sampling</tspan></tspan><tspan class="cls-13" x="0" y="51.84">Phy data: </tspan><tspan class="cls-17" x="103.22" y="51.84">&gt;1min starting at WM start</tspan><tspan class="cls-17"><tspan x="0" y="77.76">Starts before SLEA</tspan><tspan class="cls-15" x="184.9" y="77.76">P</tspan><tspan x="196.52" y="77.76">. 25kHz sampling</tspan></tspan><tspan class="cls-13" x="0" y="103.68">SLEA</tspan><tspan class="cls-12" x="57.61" y="103.68">P</tspan><tspan class="cls-13" x="71.62" y="103.68" xml:space="preserve"> data: </tspan><tspan class="cls-17" x="135.23" y="103.68">1min starting at Motif start</tspan><tspan class="cls-17"><tspan x="0" y="129.6">Sampled at 40Hz from top camera</tspan></tspan></text><path class="cls-5" d="M661.02,159.71c.94-6.03.73-12.56,2.57-18.09,2.34-7.02,7.65-10.94,12.86-11.51,2.65-.29,5.39.15,7.89-1.2,3.16-1.7,5.42-5.97,8.48-8.04,4.82-3.25,11.17.4,13.32,7.66.26.87.46,1.86.25,2.76-.47,2.03-2.36,1.88-3.78,1.73-4.25-.44-8.57,3.03-10.7,8.58-1.44,3.76-1.93,8.33-3.77,11.68-1.73,3.14-4.38,4.71-6.92,6.14-2.69,1.52-5.39,3.02-8.08,4.51-2.97,1.64-6.2,3.28-9.24,1.93-1.07-.48-2.08-1.32-3.18-1.62-2.1-.57-4.18.87-6.18,1.99-6.81,3.81-14.46,4.1-21.39.82-.17-1.53,1-2.72,2.03-2.66s1.95.91,2.91,1.44c2.82,1.55,5.94.33,8.83-.89,4.71-1.99,9.43-3.98,14.14-5.97"/><path class="cls-1" d="M663.43,160.37c.92-6.12.61-12.6,2.71-18.48,1.46-4.11,4.69-7.79,8.91-8.97,2.46-.69,5.25-.25,7.93-.86s4.82-2.39,6.64-4.41c1.58-1.74,3.07-3.99,5.22-5.07,1.23-.62,2.8-.51,4.12.2,1.71.91,2.99,2.46,3.9,4.23.49.94.95,2.05,1.1,3.1s.03.24.22.46l.13-.04c-.3.07-.34.09-.11.06-.27.02-.54.02-.81,0-2.42-.12-4.54.11-6.71,1.31s-3.99,3.14-5.33,5.25c-1.59,2.48-2.43,5.33-3.17,8.16-.68,2.64-1.24,5.52-2.87,7.78-1.36,1.88-3.38,3.06-5.36,4.18-2.95,1.67-5.9,3.36-8.9,4.96-1.37.73-2.85,1.52-4.43,1.63s-2.6-.86-3.93-1.49c-3.62-1.73-6.66.23-9.82,1.93-5.74,3.08-12.56,3.34-18.48.6l1.24,2.16c0-.18-.03-.35.05-.38-.15.06-.74.32-.73.21,0,0,.56.3.61.33,1.11.68,2.19,1.36,3.49,1.64,2.63.56,5.25-.16,7.69-1.14,5.22-2.12,10.38-4.38,15.57-6.57,1.24-.53,1.52-2.36.9-3.42-.75-1.29-2.17-1.42-3.42-.9-2.89,1.22-5.78,2.44-8.67,3.66-2.7,1.14-5.41,2.53-8.25,3.3-1.07.29-2.25.47-3.31.02-1.25-.53-2.16-1.49-3.53-1.78-3.06-.65-5.49,2.12-5.38,5.04.03.82.44,1.79,1.24,2.16,6.08,2.82,12.92,3.46,19.31,1.24,1.59-.55,3.14-1.24,4.61-2.06,1.11-.61,2.75-1.97,4.13-1.77.46.07.9.4,1.3.63.78.45,1.56.9,2.42,1.19,1.72.58,3.6.5,5.34.05,3.43-.9,6.59-3.04,9.66-4.75,2.76-1.54,5.63-2.97,8.09-4.97s4.03-4.72,5.03-7.71,1.43-6.09,2.62-8.97c.92-2.24,2.43-4.44,4.54-5.7.77-.46,1.76-.82,2.49-.88,1.14-.09,2.24.17,3.38.01,3.64-.51,4.66-4.09,3.85-7.26-.71-2.79-2.2-5.53-4.24-7.57-3.62-3.62-9.16-4.76-13.43-1.55-2.29,1.72-3.91,4.08-5.93,6.08-.87.86-1.79,1.61-2.99,1.93-1.56.42-3.18.3-4.78.4-6.18.4-11.47,4.12-14.42,9.51-3.7,6.75-3.15,14.61-4.26,21.99-.2,1.33.34,2.69,1.75,3.08,1.18.32,2.87-.4,3.08-1.75h0Z"/><rect class="cls-7" x="683" y="111.27" width="9.24" height="15.12" transform="translate(22.19 328.93) rotate(-27.33)"/><rect class="cls-10" x="666.97" y="101.78" width="23.44" height="12.37" rx="6.19" ry="6.19" transform="translate(26.18 323.61) rotate(-27.33)"/><path class="cls-1" d="M685.76,147.25l8.05-.33c1.3-.05,2.56-1.11,2.5-2.5-.06-1.31-1.1-2.56-2.5-2.5l-8.05.33c-1.3.05-2.56,1.11-2.5,2.5.06,1.31,1.1,2.56,2.5,2.5h0Z"/><path class="cls-1" d="M670.39,161.65c5.05-1.42,10.41-.67,14.88,2.07v-4.32c-6.91,3.11-14.58,4.17-22.1,3.34-1.34-.15-2.5,1.26-2.5,2.5,0,1.48,1.15,2.35,2.5,2.5,8.43.93,16.91-.55,24.62-4.02,1.79-.81,1.46-3.42,0-4.32-5.58-3.41-12.44-4.34-18.73-2.57-3.09.87-1.78,5.7,1.33,4.82h0Z"/><path class="cls-4" d="M698.64,127.5c3.22,0,3.22-5,0-5s-3.22,5,0,5h0Z"/></svg>