<?xml version="1.0" encoding="utf-8"?>
<!-- Generator: Adobe Illustrator 28.3.0, SVG Export Plug-In . SVG Version: 6.00 Build 0)  -->
<svg version="1.1" id="Layer_1" xmlns="http://www.w3.org/2000/svg" xmlns:xlink="http://www.w3.org/1999/xlink" x="0px" y="0px"
	 viewBox="0 0 885.5 454.8" style="enable-background:new 0 0 885.5 454.8;" xml:space="preserve">
<style type="text/css">
	.st0{fill:#FBB040;stroke:#000000;stroke-miterlimit:10;}
	.st1{fill:#E6E7E8;stroke:#000000;stroke-miterlimit:10;}
	.st2{fill:none;}
	.st3{font-family:'Arial-BoldMT';}
	.st4{font-size:25.2px;}
	.st5{font-size:21.6px;}
	.st6{font-family:'ArialMT';}
	.st7{fill:#FFFAD6;stroke:#000000;stroke-width:9;stroke-miterlimit:10;}
	.st8{fill:#FFFFFF;}
	.st9{fill:#BCBEC0;stroke:#000000;stroke-width:2.2536;stroke-miterlimit:10;}
	.st10{fill:#414042;stroke:#000000;stroke-width:2.2536;stroke-miterlimit:10;}
	.st11{fill:#BE1E2D;}
</style>
<g>
	<path class="st0" d="M454.9,441.3H25.1c-6.6,0-12-5.4-12-12V84.8c0-6.6,5.4-12,12-12h429.8c6.6,0,12,5.4,12,12v344.4
		C466.9,435.9,461.5,441.3,454.9,441.3z"/>
	<path class="st1" d="M438.2,186h-397c-6.6,0-12-5.4-12-12v-72c0-6.6,5.4-12,12-12h397c6.6,0,12,5.4,12,12v72
		C450.2,180.6,444.8,186,438.2,186z"/>
	<path class="st1" d="M438.2,304.2h-397c-6.6,0-12-5.4-12-12v-72c0-6.6,5.4-12,12-12h397c6.6,0,12,5.4,12,12v72
		C450.2,298.8,444.8,304.2,438.2,304.2z"/>
	<path class="st1" d="M438.2,422.3h-397c-6.6,0-12-5.4-12-12v-72c0-6.6,5.4-12,12-12h397c6.6,0,12,5.4,12,12v72
		C450.2,416.9,444.8,422.3,438.2,422.3z"/>
	<rect x="27.2" y="9.2" class="st2" width="420.6" height="69.6"/>
	<text transform="matrix(1 0 0 1 41.4857 27.2689)"><tspan x="0" y="0" class="st3 st4">Single White Matter/Territory Rig </tspan><tspan x="17.5" y="30.2" class="st3 st4">Recording Session: Raw Data</tspan></text>
	<text transform="matrix(1 0 0 1 41.8139 120.2772)"><tspan x="0" y="0" class="st3 st5">DAQ (MC USB-005)</tspan><tspan x="0" y="25.9" class="st6 st5">4 Channels/TTLs in .tdms file</tspan><tspan x="0" y="51.8" class="st6 st5">WM start, Motif start, WM sync, Stimuli</tspan></text>
	<text transform="matrix(1 0 0 1 43.3904 239.1354)"><tspan x="0" y="0" class="st3 st5">Phy (as a separate directory)</tspan><tspan x="0" y="25.9" class="st6 st5">Sorted via Kilosort, potentially curated</tspan><tspan x="0" y="51.8" class="st6 st5">spike_times spike_clusters cluster_group</tspan></text>
	<text transform="matrix(1 0 0 1 42.0731 356.9429)"><tspan x="0" y="0" class="st3 st5">SLEAP Tracking Data</tspan><tspan x="0" y="25.9" class="st6 st5">Converted to .h5</tspan><tspan x="0" y="51.8" class="st6 st5">Only track 0 will be used as ephys mouse</tspan></text>
</g>
<rect x="477.8" y="9.2" class="st2" width="420.6" height="69.6"/>
<text transform="matrix(1 0 0 1 586.5568 27.2689)" class="st3 st4">Example in Repo</text>
<polygon class="st7" points="738.7,237.1 638.7,237.1 609.3,75.7 766.9,75.7 "/>
<rect x="488.1" y="289.5" class="st2" width="420.6" height="216.1"/>
<text transform="matrix(1 0 0 1 488.1213 305.0073)"><tspan x="0" y="0" class="st3 st5">DAQ data: </tspan><tspan x="111.6" y="0" class="st6 st5">~2min starting first</tspan><tspan x="0" y="25.9" class="st6 st5">50kHz sampling</tspan><tspan x="0" y="51.8" class="st3 st5">Phy data: </tspan><tspan x="103.2" y="51.8" class="st6 st5">&gt;1min starting at WM start</tspan><tspan x="0" y="77.8" class="st6 st5">Starts before SLEAP. 25kHz sampling</tspan><tspan x="0" y="103.7" class="st3 st5">SLEAP data: </tspan><tspan x="135.6" y="103.7" class="st6 st5">1min starting at Motif start</tspan><tspan x="0" y="129.6" class="st6 st5">Sampled at 40Hz from top camera</tspan></text>
<g>
	<path class="st8" d="M673.7,165.4c0.9-6,0.7-12.6,2.6-18.1c2.3-7,7.7-10.9,12.9-11.5c2.6-0.3,5.4,0.1,7.9-1.2c3.2-1.7,5.4-6,8.5-8
		c4.8-3.2,11.2,0.4,13.3,7.7c0.3,0.9,0.5,1.9,0.3,2.8c-0.5,2-2.4,1.9-3.8,1.7c-4.2-0.4-8.6,3-10.7,8.6c-1.4,3.8-1.9,8.3-3.8,11.7
		c-1.7,3.1-4.4,4.7-6.9,6.1c-2.7,1.5-5.4,3-8.1,4.5c-3,1.6-6.2,3.3-9.2,1.9c-1.1-0.5-2.1-1.3-3.2-1.6c-2.1-0.6-4.2,0.9-6.2,2
		c-6.8,3.8-14.5,4.1-21.4,0.8c-0.2-1.5,1-2.7,2-2.7c1,0.1,1.9,0.9,2.9,1.4c2.8,1.5,5.9,0.3,8.8-0.9c4.7-2,9.4-4,14.1-6"/>
	<g>
		<path d="M676.1,166c0.9-6.1,0.6-12.6,2.7-18.5c1.5-4.1,4.7-7.8,8.9-9c2.5-0.7,5.3-0.3,7.9-0.9c2.7-0.6,4.8-2.4,6.6-4.4
			c1.6-1.7,3.1-4,5.2-5.1c1.2-0.6,2.8-0.5,4.1,0.2c1.7,0.9,3,2.5,3.9,4.2c0.5,0.9,1,2,1.1,3.1c0.1,1,0,0.2,0.2,0.5c0,0,0.1,0,0.1,0
			c-0.3,0.1-0.3,0.1-0.1,0.1c-0.3,0-0.5,0-0.8,0c-2.4-0.1-4.5,0.1-6.7,1.3c-2.2,1.2-4,3.1-5.3,5.2c-1.6,2.5-2.4,5.3-3.2,8.2
			c-0.7,2.6-1.2,5.5-2.9,7.8c-1.4,1.9-3.4,3.1-5.4,4.2c-3,1.7-5.9,3.4-8.9,5c-1.4,0.7-2.9,1.5-4.4,1.6c-1.6,0.1-2.6-0.9-3.9-1.5
			c-3.6-1.7-6.7,0.2-9.8,1.9c-5.7,3.1-12.6,3.3-18.5,0.6c0.4,0.7,0.8,1.4,1.2,2.2c0-0.2,0-0.3,0-0.4c-0.2,0.1-0.7,0.3-0.7,0.2
			c0,0,0.6,0.3,0.6,0.3c1.1,0.7,2.2,1.4,3.5,1.6c2.6,0.6,5.3-0.2,7.7-1.1c5.2-2.1,10.4-4.4,15.6-6.6c1.2-0.5,1.5-2.4,0.9-3.4
			c-0.8-1.3-2.2-1.4-3.4-0.9c-2.9,1.2-5.8,2.4-8.7,3.7c-2.7,1.1-5.4,2.5-8.3,3.3c-1.1,0.3-2.3,0.5-3.3,0c-1.2-0.5-2.2-1.5-3.5-1.8
			c-3.1-0.7-5.5,2.1-5.4,5c0,0.8,0.4,1.8,1.2,2.2c6.1,2.8,12.9,3.5,19.3,1.2c1.6-0.6,3.1-1.2,4.6-2.1c1.1-0.6,2.8-2,4.1-1.8
			c0.5,0.1,0.9,0.4,1.3,0.6c0.8,0.5,1.6,0.9,2.4,1.2c1.7,0.6,3.6,0.5,5.3,0c3.4-0.9,6.6-3,9.7-4.8c2.8-1.5,5.6-3,8.1-5
			c2.5-2,4-4.7,5-7.7c1-3,1.4-6.1,2.6-9c0.9-2.2,2.4-4.4,4.5-5.7c0.8-0.5,1.8-0.8,2.5-0.9c1.1-0.1,2.2,0.2,3.4,0
			c3.6-0.5,4.7-4.1,3.9-7.3c-0.7-2.8-2.2-5.5-4.2-7.6c-3.6-3.6-9.2-4.8-13.4-1.6c-2.3,1.7-3.9,4.1-5.9,6.1c-0.9,0.9-1.8,1.6-3,1.9
			c-1.6,0.4-3.2,0.3-4.8,0.4c-6.2,0.4-11.5,4.1-14.4,9.5c-3.7,6.8-3.1,14.6-4.3,22c-0.2,1.3,0.3,2.7,1.7,3.1
			C674.2,168.1,675.9,167.4,676.1,166L676.1,166z"/>
	</g>
</g>
<g>
	
		<rect x="695.6" y="116.9" transform="matrix(0.8884 -0.4591 0.4591 0.8884 21.0038 335.3621)" class="st9" width="9.2" height="15.1"/>
	<path class="st10" d="M689.3,121.7l9.8-5.1c3-1.6,4.2-5.3,2.7-8.3v0c-1.6-3-5.3-4.2-8.3-2.7l-9.8,5.1c-3,1.6-4.2,5.3-2.7,8.3v0
		C682.5,122,686.2,123.2,689.3,121.7z"/>
</g>
<g>
	<g>
		<path d="M698.4,152.9c2.7-0.1,5.4-0.2,8.1-0.3c1.3-0.1,2.6-1.1,2.5-2.5c-0.1-1.3-1.1-2.6-2.5-2.5c-2.7,0.1-5.4,0.2-8.1,0.3
			c-1.3,0.1-2.6,1.1-2.5,2.5C696,151.7,697,153,698.4,152.9L698.4,152.9z"/>
	</g>
</g>
<g>
	<g>
		<path d="M683,167.3c5-1.4,10.4-0.7,14.9,2.1c0-1.4,0-2.9,0-4.3c-6.9,3.1-14.6,4.2-22.1,3.3c-1.3-0.1-2.5,1.3-2.5,2.5
			c0,1.5,1.2,2.4,2.5,2.5c8.4,0.9,16.9-0.5,24.6-4c1.8-0.8,1.5-3.4,0-4.3c-5.6-3.4-12.4-4.3-18.7-2.6
			C678.6,163.3,679.9,168.2,683,167.3L683,167.3z"/>
	</g>
</g>
<g>
	<g>
		<path class="st11" d="M711.3,133.1c3.2,0,3.2-5,0-5C708.1,128.1,708.1,133.1,711.3,133.1L711.3,133.1z"/>
	</g>
</g>
</svg>
